<?xml version="1.0" encoding="UTF-8"?>
<!-- Generator: Adobe Illustrator 26.0.3, SVG Export Plug-In . SVG Version: 6.00 Build 0)  -->
<svg xmlns="http://www.w3.org/2000/svg" xmlns:xlink="http://www.w3.org/1999/xlink" version="1.0" id="Layer_1" x="0px" y="0px" viewBox="0 0 248.7 187.8" style="enable-background:new 0 0 248.7 187.8;" xml:space="preserve">
<style type="text/css">
	.st0{fill:#737373;}
	.st1{fill:#F25022;}
	.st2{fill:#7FBA00;}
	.st3{fill:#00A4EF;}
	.st4{fill:#FFB900;}
</style>
<path class="st0" d="M98.4,87.8l-1.1,3.2h-0.1c-0.3-1.1-0.7-2.1-1.1-3.2l-6-15.2h-6v24.2H88V78.6c0-0.7-0.1-1.2-0.1-1.5H88  c0.1,0.7,0.3,1.4,0.6,2l7.3,17.7h2.7l7.2-17.9c0.2-0.6,0.4-1.2,0.5-1.9h0.1c-0.1,1.8-0.1,3.4-0.1,4.4v15.4h4.2V72.6h-5.7L98.4,87.8z   M114.3,79.5h4v17.4h-4V79.5z M116.3,72.1c-0.6,0-1.2,0.2-1.7,0.7c-0.5,0.4-0.7,1.1-0.7,1.7c0,0.6,0.3,1.2,0.7,1.7  c0.5,0.4,1.1,0.7,1.7,0.7c0.6,0,1.2-0.2,1.7-0.7c0.5-0.4,0.7-1.1,0.7-1.7c0-0.6-0.2-1.2-0.7-1.7C117.6,72.3,117,72,116.3,72.1   M132.9,79.3c-0.8-0.2-1.5-0.3-2.3-0.3c-1.7,0-3.4,0.4-4.9,1.2c-1.4,0.8-2.5,1.9-3.3,3.3c-0.8,1.6-1.1,3.3-1.1,5  c0,1.6,0.3,3.1,1.1,4.5c0.7,1.3,1.8,2.4,3.1,3.2c1.4,0.7,2.9,1.1,4.5,1.1c1.7,0,3.4-0.4,4.9-1.2l0,0v-3.7l-0.2,0.1  c-0.6,0.4-1.3,0.8-2,1c-0.6,0.2-1.3,0.3-2,0.3c-1.4,0.1-2.8-0.5-3.8-1.5c-1-1.1-1.5-2.6-1.4-4.1c-0.1-1.5,0.4-3.1,1.4-4.2  c1-1,2.4-1.6,3.8-1.5c1.4,0,2.8,0.5,3.9,1.3l0.2,0.1v-4l0,0C134.1,79.7,133.5,79.5,132.9,79.3 M146.3,79.1c-1,0-1.9,0.3-2.7,0.9  c-0.7,0.6-1.2,1.5-1.5,2.4l0,0v-3.1H138v17.4h4.1v-8.9c-0.1-1.3,0.3-2.6,1-3.7c0.6-0.9,1.6-1.4,2.6-1.4c0.4,0,0.8,0.1,1.2,0.2  c0.3,0.1,0.7,0.2,0.9,0.4l0.2,0.1v-4.1h-0.1C147.4,79.2,146.9,79.1,146.3,79.1 M157.3,79.1c-2.5-0.1-4.9,0.8-6.7,2.5  c-1.7,1.9-2.5,4.3-2.4,6.8c-0.4,4.5,3,8.5,7.5,8.8c0.4,0,0.8,0,1.2,0c2.5,0.1,4.9-0.8,6.6-2.6c1.7-1.8,2.5-4.3,2.4-6.7  c0.1-2.4-0.7-4.8-2.3-6.6C162,79.7,159.7,78.9,157.3,79.1 M160.7,92.4c-0.9,1-2.1,1.5-3.4,1.4c-1.3,0.1-2.6-0.5-3.5-1.5  c-0.9-1.2-1.4-2.7-1.3-4.2c-0.1-1.5,0.4-3,1.3-4.3c1.8-1.9,4.8-2,6.7-0.3c0.1,0.1,0.1,0.1,0.2,0.2c0.9,1.2,1.4,2.7,1.3,4.2  C162,89.6,161.5,91.1,160.7,92.4 M175.1,86.6c-0.9-0.3-1.7-0.7-2.5-1.3c-0.3-0.3-0.5-0.8-0.5-1.3c0-0.5,0.2-1,0.7-1.3  c0.5-0.4,1.1-0.5,1.8-0.5c0.7,0,1.4,0.1,2.1,0.3c0.6,0.2,1.2,0.5,1.8,0.9l0.2,0.1v-3.8h-0.1c-0.6-0.2-1.2-0.4-1.9-0.5  c-0.8-0.1-1.4-0.2-2-0.2c-1.7-0.1-3.4,0.5-4.8,1.5c-1.2,0.9-1.9,2.3-1.9,3.8c0,0.7,0.1,1.5,0.4,2.1c0.3,0.6,0.7,1.2,1.3,1.6  c0.8,0.6,1.6,1,2.5,1.4c0.9,0.4,1.7,0.7,2.1,0.9c0.3,0.2,0.7,0.5,0.9,0.8c0.2,0.3,0.3,0.6,0.3,0.9c0,1.2-0.9,1.7-2.6,1.7  c-0.8,0-1.6-0.1-2.3-0.4c-0.8-0.3-1.6-0.7-2.3-1.2l-0.2-0.1v4h0.1c0.7,0.3,1.4,0.5,2.2,0.7c0.8,0.2,1.6,0.2,2.4,0.3  c1.8,0.1,3.6-0.4,5-1.5c1.2-0.9,1.9-2.4,1.9-3.9c0.1-1.1-0.3-2.2-1-3C177.6,87.9,176.4,87.1,175.1,86.6 M190.5,79  c-2.5-0.1-4.9,0.8-6.7,2.5c-1.7,1.9-2.5,4.3-2.4,6.8c-0.4,4.5,3,8.5,7.5,8.8c0.4,0,0.8,0,1.2,0c2.5,0.1,4.9-0.8,6.6-2.6  c1.6-1.8,2.5-4.2,2.4-6.7c0.1-2.4-0.7-4.7-2.3-6.6C195.2,79.7,192.9,78.9,190.5,79 M193.8,92.4c-1.8,1.9-4.8,1.9-6.7,0.1  c-0.1-0.1-0.1-0.1-0.2-0.2c-0.9-1.2-1.4-2.7-1.3-4.2c-0.1-1.5,0.4-3,1.3-4.3c1.8-1.9,4.8-2,6.7-0.3c0.1,0.1,0.1,0.1,0.2,0.2  c0.9,1.2,1.4,2.7,1.3,4.2C195.1,89.6,194.6,91.1,193.8,92.4"></path>
<path class="st0" d="M221,82.8v-3.3h-4.1v-5.1h-0.1l-3.9,1.2h-0.1v3.9h-6.1v-2.2c-0.1-0.8,0.2-1.6,0.7-2.3c0.5-0.5,1.2-0.8,1.9-0.8  c0.6,0,1.2,0.1,1.8,0.4l0.2,0.1v-3.6h-0.1c-0.7-0.2-1.5-0.3-2.3-0.3c-1.1,0-2.2,0.2-3.2,0.8c-0.9,0.5-1.7,1.3-2.2,2.2  c-0.5,1-0.8,2.1-0.9,3.2v2.4h-2.8v3.3h2.9v14h4.1V82.8h6.1v8.9c0,3.7,1.7,5.5,5.2,5.5c0.6,0,1.1-0.1,1.7-0.2c0.5,0,0.9-0.2,1.3-0.4  l0,0v-3.3l-0.2,0.1c-0.3,0.2-0.5,0.3-0.9,0.3c-0.3,0.1-0.6,0.1-0.9,0.1c-0.7,0.1-1.3-0.2-1.8-0.7c-0.4-0.7-0.6-1.4-0.6-2.2v-8.2H221  z"></path>
<path class="st1" d="M27.7,70.8h22v21.9h-22V70.8z"></path>
<path class="st2" d="M51.9,70.8h22v21.9h-22V70.8z"></path>
<path class="st3" d="M27.7,95.1h22V117h-22V95.1z"></path>
<path class="st4" d="M51.9,95.1h22V117h-22V95.1z"></path>
<path class="st0" d="M91.4,113.9c-0.8,0.4-1.6,0.5-2.5,0.5c-1.2,0-2.3-0.4-3.1-1.3c-0.8-0.9-1.2-2-1.2-3.2c-0.1-1.3,0.4-2.5,1.3-3.5  c0.9-0.9,2.1-1.4,3.4-1.3c0.7,0,1.4,0.1,2.1,0.3v1.1c-0.7-0.3-1.4-0.5-2.1-0.5c-1,0-1.9,0.3-2.6,1c-0.7,0.8-1,1.8-0.9,2.8  c0,1,0.3,1.9,0.9,2.6c0.6,0.7,1.5,1,2.4,0.9c0.8,0,1.7-0.2,2.4-0.6v1.1H91.4z"></path>
<path class="st0" d="M94.1,114.4h-1v-9.5h1V114.4z"></path>
<path class="st0" d="M98.9,114.5c-1.7,0.1-3.1-1.3-3.2-3c0-0.1,0-0.2,0-0.4c-0.1-0.9,0.2-1.8,0.8-2.6c0.6-0.6,1.5-1,2.4-0.9  c0.8-0.1,1.6,0.2,2.2,0.8c0.5,0.7,0.8,1.6,0.8,2.5c0.1,0.9-0.2,1.8-0.8,2.5C100.6,114.2,99.8,114.6,98.9,114.5z M99,108.7  c-0.6,0-1.2,0.2-1.5,0.7c-0.4,0.5-0.6,1.2-0.6,1.9c-0.1,0.7,0.2,1.3,0.6,1.8c0.4,0.4,1,0.7,1.5,0.7c0.6,0,1.2-0.2,1.5-0.7  c0.4-0.5,0.6-1.2,0.5-1.9c0-0.7-0.1-1.3-0.5-1.9C100.1,108.8,99.6,108.6,99,108.7z"></path>
<path class="st0" d="M109,114.4h-1v-1l0,0c-0.4,0.8-1.2,1.2-2,1.2c-1.5,0-2.3-0.9-2.3-2.7V108h1v3.7c0,1.3,0.5,2,1.5,2  c0.5,0,1-0.2,1.3-0.6c0.4-0.4,0.5-0.9,0.5-1.4v-3.7h1L109,114.4L109,114.4z"></path>
<path class="st0" d="M116.6,114.4h-1v-1.1l0,0c-0.4,0.8-1.3,1.3-2.3,1.3c-0.8,0.1-1.5-0.3-2-0.9c-0.5-0.7-0.8-1.5-0.8-2.4  c-0.1-0.9,0.2-1.8,0.8-2.6c0.5-0.6,1.3-1,2.1-0.9c0.8-0.1,1.6,0.3,2,1l0,0v-4h1v9.5L116.6,114.4z M115.5,111.5v-0.9  c0-0.5-0.2-1-0.5-1.4c-0.3-0.3-0.8-0.5-1.3-0.5c-0.6,0-1.1,0.2-1.4,0.7c-0.4,0.6-0.5,1.2-0.5,1.9c0,0.6,0.1,1.3,0.5,1.8  c0.3,0.4,0.8,0.7,1.4,0.7c0.5,0,1-0.2,1.4-0.6C115.3,112.6,115.5,112,115.5,111.5z"></path>
<path class="st0" d="M121.9,114v-1.3c0.2,0.1,0.3,0.2,0.5,0.3l0.6,0.2c0.2,0.1,0.4,0.1,0.7,0.2s0.4,0.1,0.6,0.1  c0.5,0.1,1-0.1,1.4-0.3c0.3-0.2,0.5-0.6,0.5-1c0-0.2-0.1-0.4-0.2-0.6c-0.1-0.2-0.3-0.4-0.4-0.5c-0.2-0.2-0.4-0.3-0.7-0.4  c-0.3-0.2-0.6-0.3-0.9-0.4c-0.3-0.2-0.6-0.3-0.8-0.5c-0.5-0.3-0.9-0.7-1.2-1.2c-0.1-0.3-0.2-0.6-0.2-0.8c0-0.4,0.1-0.8,0.3-1.1  c0.2-0.3,0.4-0.6,0.7-0.8c0.3-0.2,0.6-0.3,1-0.4c0.4-0.1,0.7-0.2,1.1-0.2c0.7-0.1,1.4,0.1,2,0.3v1.2c-0.6-0.4-1.3-0.6-2-0.6  c-0.2,0-0.5,0-0.7,0.1c-0.3,0.1-0.4,0.1-0.6,0.2c-0.2,0.1-0.3,0.2-0.4,0.4c-0.2,0.4-0.2,0.8,0,1.2c0.1,0.2,0.2,0.3,0.3,0.4  c0.2,0.2,0.4,0.3,0.6,0.4c0.3,0.2,0.6,0.3,0.9,0.4c0.3,0.2,0.6,0.3,0.9,0.5c0.3,0.2,0.5,0.4,0.8,0.6c0.2,0.2,0.4,0.4,0.5,0.7  c0.1,0.3,0.2,0.6,0.2,0.9c0,0.4-0.1,0.8-0.3,1.1c-0.2,0.3-0.4,0.6-0.7,0.8c-0.3,0.2-0.6,0.3-1,0.4c-0.4,0.1-0.8,0.2-1.2,0.2h-0.5  c-0.2,0-0.4-0.1-0.7-0.1s-0.4-0.1-0.6-0.2S122,114.1,121.9,114z"></path>
<path class="st0" d="M131.7,114.5c-1.7,0.1-3.1-1.3-3.2-3c0-0.1,0-0.2,0-0.4c-0.1-0.9,0.2-1.8,0.9-2.6c0.6-0.6,1.5-1,2.4-0.9  c0.8-0.1,1.6,0.2,2.2,0.8c0.5,0.7,0.8,1.6,0.8,2.5c0.1,0.9-0.2,1.8-0.9,2.5C133.4,114.2,132.6,114.6,131.7,114.5z M131.8,108.7  c-0.6,0-1.2,0.2-1.5,0.7c-0.4,0.5-0.6,1.2-0.6,1.9c-0.1,0.7,0.2,1.3,0.6,1.8c0.4,0.4,0.9,0.7,1.5,0.7c0.6,0,1.2-0.2,1.5-0.7  c0.4-0.5,0.6-1.2,0.5-1.9c0-0.7-0.1-1.3-0.5-1.9C133,108.9,132.4,108.6,131.8,108.7z"></path>
<path class="st0" d="M137.6,114.4h-1v-9.5h1V114.4z"></path>
<path class="st0" d="M144.9,114.4h-1v-1l0,0c-0.4,0.8-1.2,1.2-2,1.2c-1.5,0-2.3-0.9-2.3-2.7V108h1v3.7c0,1.3,0.5,2,1.5,2  c0.5,0,1-0.2,1.3-0.6c0.4-0.4,0.5-0.9,0.5-1.4v-3.7h1L144.9,114.4L144.9,114.4z"></path>
<path class="st0" d="M149.9,114.3c-0.3,0.1-0.6,0.2-0.9,0.2c-1.1,0-1.7-0.6-1.7-1.9v-3.8h-1.1v-0.8h1.1v-1.5l1-0.3v1.9h1.6v0.9h-1.6  v3.7c0,0.3,0.1,0.7,0.3,0.9c0.2,0.2,0.5,0.3,0.8,0.3c0.3,0,0.5-0.1,0.7-0.3L149.9,114.3L149.9,114.3z"></path>
<path class="st0" d="M151.9,106.3c-0.2,0-0.4-0.1-0.5-0.2c-0.2-0.1-0.2-0.3-0.2-0.5c0-0.2,0.1-0.4,0.2-0.5c0.1-0.2,0.2-0.2,0.5-0.2  c0.2,0,0.4,0.1,0.5,0.2c0.2,0.1,0.2,0.2,0.2,0.5c0,0.3-0.2,0.6-0.5,0.7C152,106.3,152,106.3,151.9,106.3z M152.3,114.4h-1v-6.5h1  V114.4z"></path>
<path class="st0" d="M157.2,114.5c-1.7,0.1-3.1-1.3-3.2-3c0-0.1,0-0.2,0-0.4c-0.1-0.9,0.2-1.8,0.9-2.6c0.6-0.6,1.5-1,2.4-0.9  c0.8-0.1,1.6,0.2,2.2,0.8c0.5,0.7,0.8,1.6,0.8,2.5c0.1,0.9-0.2,1.8-0.9,2.5C158.9,114.2,158,114.6,157.2,114.5z M157.3,108.7  c-0.6,0-1.2,0.2-1.5,0.7c-0.4,0.5-0.6,1.2-0.6,1.9c-0.1,0.7,0.2,1.3,0.6,1.8c0.4,0.4,0.9,0.7,1.5,0.7c0.6,0,1.2-0.2,1.5-0.7  c0.4-0.5,0.6-1.2,0.5-1.9c0-0.7-0.1-1.3-0.5-1.9C158.4,108.9,157.8,108.6,157.3,108.7z"></path>
<path class="st0" d="M167.3,114.4h-1v-3.7c0-1.4-0.5-2-1.5-2c-0.5,0-1,0.2-1.3,0.6c-0.3,0.4-0.5,0.9-0.5,1.4v3.7h-1v-6.5h1v1.1l0,0  c0.4-0.8,1.2-1.2,2.1-1.2c0.6,0,1.2,0.2,1.6,0.7c0.4,0.6,0.6,1.3,0.6,2L167.3,114.4z"></path>
<path class="st0" d="M174,111v3.4h-1v-9h2.5c0.8,0,1.6,0.2,2.2,0.7c0.5,0.5,0.8,1.3,0.8,2c0,0.8-0.3,1.6-0.9,2.1  c-0.6,0.6-1.5,0.9-2.4,0.8L174,111z M174,106.3v3.6h1.1c0.6,0,1.2-0.1,1.7-0.5c0.4-0.4,0.6-0.9,0.6-1.4c0-1.2-0.7-1.8-2.1-1.8H174  V106.3z"></path>
<path class="st0" d="M183.4,108.9c-0.2-0.2-0.4-0.2-0.8-0.2c-0.4,0-0.9,0.2-1.1,0.6c-0.3,0.5-0.4,1.1-0.4,1.7v3.3h-1v-6.4h1v1.4l0,0  c0.1-0.4,0.4-0.7,0.7-1c0.3-0.2,0.6-0.3,1-0.3c0.2,0,0.4,0,0.6,0.1L183.4,108.9L183.4,108.9z"></path>
<path class="st0" d="M187.1,114.5c-1.7,0.1-3.1-1.3-3.2-3c0-0.1,0-0.2,0-0.4c-0.1-0.9,0.2-1.9,0.9-2.6c0.6-0.6,1.5-1,2.4-0.9  c0.8-0.1,1.6,0.2,2.2,0.8c0.5,0.7,0.8,1.6,0.8,2.5c0.1,0.9-0.2,1.8-0.9,2.5C188.7,114.2,187.9,114.6,187.1,114.5z M187.1,108.7  c-0.6,0-1.2,0.2-1.5,0.7c-0.4,0.5-0.7,1.2-0.6,1.9c-0.1,0.7,0.2,1.3,0.6,1.8c0.4,0.4,0.9,0.7,1.5,0.7c0.6,0,1.2-0.2,1.5-0.7  c0.4-0.5,0.6-1.2,0.5-1.9c0-0.7-0.1-1.3-0.5-1.9C188.3,108.8,187.7,108.6,187.1,108.7L187.1,108.7z"></path>
<path class="st0" d="M196.9,107.9l-2.6,6.5h-1l-2.5-6.5h1.1l1.6,4.7c0.1,0.3,0.2,0.7,0.2,0.9l0,0c0-0.3,0.1-0.6,0.2-0.8l1.7-4.7  L196.9,107.9L196.9,107.9L196.9,107.9z"></path>
<path class="st0" d="M198.6,106.3c-0.2,0-0.4-0.1-0.5-0.2c-0.2-0.1-0.2-0.3-0.2-0.5c0-0.2,0.1-0.4,0.2-0.5c0.1-0.2,0.2-0.2,0.5-0.2  c0.2,0,0.4,0.1,0.5,0.2c0.2,0.1,0.2,0.2,0.2,0.5c0,0.3-0.2,0.6-0.5,0.7C198.7,106.3,198.7,106.3,198.6,106.3z M199.1,114.4h-1v-6.5  h1V114.4z"></path>
<path class="st0" d="M206.7,114.4h-1v-1.1l0,0c-0.4,0.8-1.3,1.3-2.2,1.3c-0.8,0.1-1.5-0.3-2-0.9c-0.5-0.7-0.8-1.5-0.8-2.4  c-0.1-0.9,0.2-1.8,0.8-2.6c0.5-0.6,1.3-1,2.1-0.9c0.8,0,1.5,0.3,1.9,1l0,0v-4h1v9.5L206.7,114.4z M205.7,111.5v-0.9  c0-0.5-0.2-1-0.5-1.4c-0.3-0.3-0.8-0.5-1.3-0.5c-0.6,0-1.1,0.2-1.4,0.7c-0.4,0.6-0.6,1.2-0.5,1.9c0,0.6,0.1,1.3,0.5,1.8  c0.3,0.4,0.8,0.7,1.4,0.7c0.5,0,1-0.2,1.4-0.6C205.5,112.6,205.6,112,205.7,111.5L205.7,111.5z"></path>
<path class="st0" d="M213.9,111.4h-4.5c0,0.6,0.2,1.2,0.6,1.7c0.4,0.4,1,0.6,1.5,0.6c0.7,0,1.4-0.3,2-0.7v0.9  c-0.7,0.4-1.4,0.6-2.2,0.6c-0.8,0.1-1.6-0.2-2.1-0.8c-0.5-0.7-0.8-1.6-0.8-2.5c0-0.9,0.3-1.8,0.9-2.5c0.5-0.6,1.3-1,2.1-0.9  c0.8-0.1,1.5,0.2,2,0.9c0.5,0.7,0.7,1.5,0.7,2.3v0.4L213.9,111.4z M212.9,110.5c0-0.5-0.1-1-0.4-1.4c-0.3-0.4-0.7-0.5-1.2-0.5  c-0.5,0-0.9,0.2-1.3,0.5c-0.3,0.4-0.6,0.9-0.6,1.4H212.9z"></path>
<path class="st0" d="M218.9,108.9c-0.2-0.2-0.4-0.2-0.8-0.2c-0.4,0-0.9,0.2-1.1,0.6c-0.3,0.5-0.5,1.1-0.4,1.7v3.3h-1v-6.4h1v1.4l0,0  c0.1-0.4,0.4-0.7,0.7-1c0.3-0.2,0.6-0.3,1-0.3c0.2,0,0.4,0,0.6,0.1L218.9,108.9L218.9,108.9z"></path>
</svg>
